<svg width="24.114014" height="24.000000" viewBox="0 0 24.114 24" fill="none" xmlns="http://www.w3.org/2000/svg" xmlns:xlink="http://www.w3.org/1999/xlink">
	<desc>
			Created with Pixso.
	</desc>
	<defs/>
	<path id="Vector" d="M12.057 2.16223C15.2762 2.16223 15.6575 2.17419 16.9292 2.23193C17.6938 2.24121 18.4512 2.38098 19.1684 2.64502C19.6884 2.8446 20.1608 3.15039 20.5549 3.54272C20.9491 3.93494 21.2563 4.40503 21.4569 4.92261C21.7222 5.63635 21.8626 6.39014 21.872 7.15112C21.9294 8.41675 21.942 8.79614 21.942 12C21.942 15.2039 21.93 15.5833 21.872 16.8489C21.8626 17.6099 21.7222 18.3636 21.4569 19.0774C21.2563 19.595 20.9491 20.0651 20.5549 20.4573C20.1608 20.8496 19.6884 21.1554 19.1684 21.355C18.4512 21.619 17.6938 21.7588 16.9292 21.7681C15.6581 21.8252 15.2768 21.8378 12.057 21.8378C8.83722 21.8378 8.45599 21.8258 7.18484 21.7681C6.4202 21.7588 5.66284 21.619 4.94568 21.355C4.4256 21.1554 3.95328 20.8496 3.55911 20.4573C3.16495 20.0651 2.8577 19.595 2.65714 19.0774C2.39178 18.3636 2.25137 17.6099 2.24203 16.8489C2.18463 15.5833 2.172 15.2039 2.172 12C2.172 8.79614 2.18405 8.41675 2.24203 7.15112C2.25137 6.39014 2.39178 5.63635 2.65714 4.92261C2.8577 4.40503 3.16495 3.93494 3.55911 3.54272C3.95328 3.15039 4.4256 2.8446 4.94568 2.64502C5.66284 2.38098 6.4202 2.24121 7.18484 2.23193C8.45657 2.1748 8.8378 2.16223 12.057 2.16223ZM12.057 0C8.78439 0 8.37216 0.0136719 7.08609 0.0720215C6.08539 0.0917969 5.09531 0.280396 4.15796 0.629639C3.35385 0.931152 2.62555 1.40369 2.02386 2.01416C1.40988 2.61328 0.934692 3.3385 0.631561 4.13928C0.280579 5.07214 0.091095 6.0575 0.0711975 7.05334C0.0137939 8.33215 0 8.74243 0 11.9994C0 15.2565 0.0137939 15.6666 0.0723572 16.9467C0.0922546 17.9425 0.281708 18.9279 0.632721 19.8607C0.935516 20.6614 1.41028 21.3866 2.02386 21.9858C2.62589 22.5964 3.35458 23.069 4.15909 23.3704C5.09644 23.7196 6.08652 23.9082 7.08722 23.928C8.37332 23.9851 8.78381 24 12.0582 24C15.3325 24 15.743 23.9863 17.0291 23.928C18.0298 23.9082 19.0199 23.7196 19.9572 23.3704C20.7579 23.0614 21.485 22.5896 22.092 21.9851C22.6991 21.3806 23.1726 20.6567 23.4825 19.8596C23.8335 18.9268 24.0229 17.9414 24.0428 16.9454C24.1003 15.6666 24.114 15.2565 24.114 11.9994C24.114 8.74243 24.1003 8.33215 24.0417 7.05225C24.0218 6.05627 23.8323 5.07092 23.4813 4.13806C23.1785 3.3374 22.7037 2.61218 22.0902 2.01306C21.4881 1.40234 20.7594 0.929932 19.9549 0.62854C19.0176 0.279175 18.0275 0.0906982 17.0268 0.0708008C15.7419 0.0136719 15.3296 0 12.057 0Z" fill="#12132D" fill-opacity="1.000000" fill-rule="nonzero"/>
	<path id="Vector" d="M12.0548 5.83789C10.8303 5.83789 9.63321 6.19934 8.61499 6.87634C7.5968 7.55347 6.80322 8.51587 6.33459 9.64185C5.86597 10.7677 5.74335 12.0067 5.98224 13.202C6.22116 14.3973 6.81085 15.4954 7.67676 16.3571C8.54266 17.2189 9.64587 17.8057 10.8469 18.0435C12.048 18.2812 13.2929 18.1592 14.4243 17.6929C15.5556 17.2264 16.5226 16.4366 17.2029 15.4233C17.8833 14.4099 18.2464 13.2186 18.2464 11.9999C18.2464 10.3656 17.5941 8.79834 16.433 7.6427C15.2718 6.48706 13.697 5.83789 12.0548 5.83789ZM12.0548 15.9996C11.2599 15.9996 10.4829 15.7651 9.82202 15.3256C9.16107 14.8861 8.64597 14.2615 8.34177 13.5305C8.0376 12.7997 7.95801 11.9955 8.11307 11.2196C8.26813 10.4437 8.65091 9.73096 9.21298 9.17163C9.77505 8.61218 10.4912 8.2312 11.2708 8.0769C12.0504 7.92261 12.8585 8.00183 13.5929 8.30457C14.3272 8.6073 14.9549 9.12 15.3965 9.77771C15.8381 10.4354 16.0739 11.2087 16.0739 11.9999C16.0739 13.0607 15.6504 14.0781 14.8967 14.8281C14.143 15.5782 13.1208 15.9996 12.0548 15.9996Z" fill="#12132D" fill-opacity="1.000000" fill-rule="nonzero"/>
	<path id="Vector" d="M19.9387 5.59424C19.9387 6.38953 19.291 7.03418 18.4919 7.03418C17.6928 7.03418 17.045 6.38953 17.045 5.59424C17.045 4.79895 17.6928 4.1543 18.4919 4.1543C19.291 4.1543 19.9387 4.79895 19.9387 5.59424Z" fill="#12132D" fill-opacity="1.000000" fill-rule="evenodd"/>
</svg>
