<svg width="23.066467" height="22.398926" viewBox="0 0 23.0665 22.3989" fill="none" xmlns="http://www.w3.org/2000/svg" xmlns:xlink="http://www.w3.org/1999/xlink">
	<desc>
			Created with Pixso.
	</desc>
	<defs/>
	<path id="Vector" d="M11.5332 0C5.14188 0 0 5.11731 0 11.4781C0 16.5476 3.3158 20.8519 7.88101 22.3823C8.45767 22.478 8.6499 22.1432 8.6499 21.8085C8.6499 21.5215 8.6499 20.8041 8.6499 19.8477C5.43021 20.5649 4.75745 18.3171 4.75745 18.3171C4.22885 16.978 3.45996 16.6433 3.45996 16.6433C2.40274 15.9259 3.55606 15.9259 3.55606 15.9259C4.70938 16.0216 5.33411 17.1216 5.33411 17.1216C6.34326 18.8911 8.02518 18.365 8.69797 18.078C8.79407 17.3129 9.0824 16.8346 9.41879 16.5476C6.87186 16.2607 4.18079 15.2563 4.18079 10.8564C4.18079 9.61292 4.61328 8.56079 5.38217 7.79553C5.28604 7.50867 4.85355 6.36084 5.47827 4.73474C5.47827 4.73474 6.43936 4.44775 8.6499 5.93042C9.56296 5.69128 10.5721 5.54773 11.5332 5.54773C12.4943 5.54773 13.5035 5.69128 14.4165 5.93042C16.627 4.44775 17.5881 4.73474 17.5881 4.73474C18.2129 6.31299 17.8284 7.46082 17.6843 7.79553C18.4051 8.60864 18.8856 9.61292 18.8856 10.8564C18.8856 15.2563 16.1945 16.2129 13.5996 16.4998C14.0321 16.8346 14.3685 17.552 14.3685 18.6041C14.3685 20.1345 14.3685 21.3781 14.3685 21.7606C14.3685 22.0476 14.5607 22.4302 15.1854 22.3345C19.7506 20.8519 23.0664 16.5476 23.0664 11.4781C23.0664 5.11731 17.9245 0 11.5332 0Z" fill="#12132D" fill-opacity="1.000000" fill-rule="evenodd"/>
</svg>
