<svg width="24.000000" height="24.000000" viewBox="0 0 24 24" fill="none" xmlns="http://www.w3.org/2000/svg" xmlns:xlink="http://www.w3.org/1999/xlink">
	<desc>
			Created with Pixso.
	</desc>
	<defs>
		<clipPath id="clip5_547">
			<rect id="Frame" width="24.000000" height="24.000000" fill="white" fill-opacity="0"/>
		</clipPath>
	</defs>
	<rect id="Frame" width="24.000000" height="24.000000" fill="#FFFFFF" fill-opacity="0"/>
	<g clip-path="url(#clip5_547)">
		<path id="Vector" d="M18 7.5L18 10.5L18 13.5M18 10.5L21 10.5M18 10.5L15 10.5M11.7615 8.76147C11.1285 9.39453 10.2701 9.75 9.375 9.75C8.47992 9.75 7.62146 9.39453 6.98853 8.76147C6.35559 8.12866 6 7.27002 6 6.375C6 5.47998 6.35559 4.62134 6.98853 3.98853C7.62146 3.35547 8.47992 3 9.375 3C10.2701 3 11.1285 3.35547 11.7615 3.98853C12.3944 4.62134 12.75 5.47998 12.75 6.375C12.75 7.27002 12.3944 8.12866 11.7615 8.76147ZM3 19.125C3 17.4343 3.67163 15.8127 4.86719 14.6172C6.06274 13.4216 7.68427 12.75 9.375 12.75C11.0657 12.75 12.6873 13.4216 13.8828 14.6172C15.0784 15.8127 15.75 17.4343 15.75 19.125L15.75 19.2339C13.8255 20.3931 11.6206 21.0039 9.37402 21C7.04297 21 4.862 20.355 3 19.2339L3 19.2351L3 19.125Z" stroke="#12132D" stroke-opacity="0.600000" stroke-width="1.500000" stroke-linejoin="round"/>
	</g>
</svg>
