<svg width="28.000000" height="28.000000" viewBox="0 0 28 28" fill="none" xmlns="http://www.w3.org/2000/svg" xmlns:xlink="http://www.w3.org/1999/xlink">
	<desc>
			Created with Pixso.
	</desc>
	<defs>
		<clipPath id="clip57_425">
			<rect id="email 1" width="28.000000" height="28.000000" fill="white" fill-opacity="0"/>
		</clipPath>
	</defs>
	<rect id="email 1" width="28.000000" height="28.000000" fill="#FFFFFF" fill-opacity="0"/>
	<g clip-path="url(#clip57_425)">
		<path id="Vector" d="M13.9998 0C6.26807 0 0.00012207 6.26819 0.00012207 13.9999C0.00012207 21.7314 6.26807 28 13.9998 28C21.7315 28 27.9999 21.7314 27.9999 13.9999C27.9999 6.26819 21.7315 0 13.9998 0ZM14.0001 4.91736L22.2847 10.0835L5.71545 10.0835L14.0001 4.91736ZM22.3879 18.333L22.3871 18.333C22.3871 19.1616 21.7155 19.833 20.887 19.833L7.11313 19.833C6.28452 19.833 5.61307 19.1615 5.61307 18.333L5.61307 10.4122C5.61307 10.3246 5.62201 10.2394 5.63657 10.1556L13.5521 15.0914C13.5618 15.0974 13.5721 15.1016 13.5821 15.1072C13.5926 15.1129 13.6032 15.1185 13.6139 15.1239C13.6698 15.1527 13.7274 15.176 13.7863 15.1912C13.7923 15.1929 13.7984 15.1936 13.8044 15.1949C13.869 15.2102 13.9344 15.2197 13.9998 15.2197L14.0003 15.2197C14.0007 15.2197 14.0012 15.2197 14.0012 15.2197C14.0665 15.2197 14.132 15.2104 14.1965 15.1949C14.2026 15.1935 14.2087 15.1929 14.2148 15.1912C14.2735 15.176 14.3309 15.1527 14.3871 15.1239C14.3978 15.1185 14.4084 15.1129 14.4189 15.1072C14.4288 15.1016 14.4392 15.0974 14.4489 15.0914L22.3644 10.1556C22.379 10.2394 22.3879 10.3243 22.3879 10.4122L22.3879 18.333Z" fill="#10B981" fill-opacity="1.000000" fill-rule="nonzero"/>
	</g>
</svg>
