<svg width="28.000000" height="28.000000" viewBox="0 0 28 28" fill="none" xmlns="http://www.w3.org/2000/svg" xmlns:xlink="http://www.w3.org/1999/xlink">
	<desc>
			Created with Pixso.
	</desc>
	<defs>
		<clipPath id="clip23_1395">
			<rect id="tabler-icon-clock-hour-9" width="28.000000" height="28.000000" fill="white" fill-opacity="0"/>
		</clipPath>
	</defs>
	<rect id="tabler-icon-clock-hour-9" width="28.000000" height="28.000000" fill="#FFFFFF" fill-opacity="0"/>
	<g clip-path="url(#clip23_1395)">
		<path id="Vector" d="M4.29926 18.0182C4.82694 19.2921 5.60036 20.4496 6.57538 21.4246C7.55039 22.3997 8.70791 23.1731 9.98183 23.7007C11.2557 24.2284 12.6211 24.5 14 24.5C15.3789 24.5 16.7443 24.2284 18.0182 23.7007C19.2921 23.1731 20.4496 22.3997 21.4246 21.4246C22.3996 20.4496 23.1731 19.2921 23.7007 18.0182C24.2284 16.7443 24.5 15.3789 24.5 14C24.5 12.6211 24.2284 11.2557 23.7007 9.98181C23.1731 8.70789 22.3996 7.55042 21.4246 6.57544C20.4496 5.60034 19.2921 4.8269 18.0182 4.29932C16.7443 3.77161 15.3789 3.5 14 3.5C12.6211 3.5 11.2557 3.77161 9.98183 4.29932C8.70791 4.8269 7.55039 5.60034 6.57538 6.57544C5.60036 7.55042 4.82694 8.70789 4.29926 9.98181C3.77159 11.2557 3.5 12.6211 3.5 14C3.5 15.3789 3.77159 16.7443 4.29926 18.0182ZM14 8.16663L14 14L9.91666 14" stroke="#12132D" stroke-opacity="0.600000" stroke-width="1.500000" stroke-linejoin="round" stroke-linecap="round"/>
	</g>
</svg>
