<svg width="19.887848" height="15.999268" viewBox="0 0 19.8878 15.9993" fill="none" xmlns="http://www.w3.org/2000/svg" xmlns:xlink="http://www.w3.org/1999/xlink">
	<desc>
			Created with Pixso.
	</desc>
	<defs/>
	<path id="Vector" d="M19.8878 1.85559C19.1421 2.18542 18.3548 2.3916 17.5262 2.51538C18.3548 2.02051 19.0178 1.23706 19.3078 0.288696C18.5206 0.742188 17.6505 1.07214 16.6975 1.27832C15.9517 0.494873 14.8745 0 13.7143 0C11.477 0 9.6539 1.81433 9.6539 4.04102C9.6539 4.37097 9.69533 4.65955 9.7782 4.94824C6.42212 4.78333 3.39751 3.17505 1.36729 0.70105C1.03583 1.31958 0.828659 1.97925 0.828659 2.72156C0.828659 4.12354 1.53302 5.3606 2.65172 6.10278C1.98878 6.06152 1.36729 5.89661 0.787231 5.60803L0.787231 5.64917C0.787231 7.62854 2.19595 9.27795 4.06044 9.64905C3.72897 9.73145 3.35608 9.77271 2.98318 9.77271C2.73457 9.77271 2.44455 9.73145 2.19595 9.69031C2.73457 11.2985 4.22617 12.4943 6.0078 12.4943C4.59906 13.5664 2.85889 14.2261 0.952957 14.2261C0.62149 14.2261 0.290024 14.2261 0 14.1849C1.82306 15.3395 3.93614 15.9993 6.25639 15.9993C13.7558 15.9993 17.8576 9.81396 17.8576 4.45337C17.8576 4.28845 17.8576 4.08228 17.8576 3.91736C18.6449 3.38123 19.3492 2.6803 19.8878 1.85559Z" fill="#12132D" fill-opacity="1.000000" fill-rule="nonzero"/>
</svg>
